<svg width="19" height="20" viewBox="0 0 19 20" fill="none" xmlns="http://www.w3.org/2000/svg">
<g id="Frame">
<path id="Vector" d="M6.42268 3.03879H3.51719C3.08897 3.03879 2.87486 3.03879 2.7113 3.12212C2.56744 3.19543 2.45047 3.3124 2.37716 3.45627C2.29382 3.61983 2.29382 3.83394 2.29382 4.26215V7.16765C2.29382 7.59586 2.29382 7.80998 2.37716 7.97353C2.45047 8.1174 2.56744 8.23437 2.7113 8.30768C2.87486 8.39101 3.08897 8.39101 3.51719 8.39101H6.42268C6.8509 8.39101 7.06501 8.39101 7.22857 8.30768C7.37244 8.23437 7.4894 8.1174 7.56271 7.97353C7.64605 7.80998 7.64605 7.59586 7.64605 7.16765V4.26215C7.64605 3.83394 7.64605 3.61983 7.56271 3.45627C7.4894 3.3124 7.37244 3.19543 7.22857 3.12212C7.06501 3.03879 6.8509 3.03879 6.42268 3.03879Z" stroke="white" stroke-width="2" stroke-linecap="round" stroke-linejoin="round"/>
<path id="Vector_2" d="M14.8333 3.03879H11.9278C11.4995 3.03879 11.2855 3.03879 11.1219 3.12212C10.978 3.19543 10.8611 3.3124 10.7878 3.45627C10.7044 3.61983 10.7044 3.83394 10.7044 4.26215V7.16765C10.7044 7.59586 10.7044 7.80998 10.7878 7.97353C10.8611 8.1174 10.978 8.23437 11.1219 8.30768C11.2855 8.39101 11.4995 8.39101 11.9278 8.39101H14.8333C15.2616 8.39101 15.4756 8.39101 15.6392 8.30768C15.7831 8.23437 15.9 8.1174 15.9733 7.97353C16.0567 7.80998 16.0567 7.59586 16.0567 7.16765V4.26215C16.0567 3.83394 16.0567 3.61983 15.9733 3.45627C15.9 3.3124 15.7831 3.19543 15.6392 3.12212C15.4756 3.03879 15.2616 3.03879 14.8333 3.03879Z" stroke="white" stroke-width="2" stroke-linecap="round" stroke-linejoin="round"/>
<path id="Vector_3" d="M14.8333 11.4494H11.9278C11.4995 11.4494 11.2855 11.4494 11.1219 11.5327C10.978 11.6061 10.8611 11.723 10.7878 11.8669C10.7044 12.0304 10.7044 12.2445 10.7044 12.6728V15.5783C10.7044 16.0065 10.7044 16.2206 10.7878 16.3842C10.8611 16.5281 10.978 16.645 11.1219 16.7183C11.2855 16.8016 11.4995 16.8016 11.9278 16.8016H14.8333C15.2616 16.8016 15.4756 16.8016 15.6392 16.7183C15.7831 16.645 15.9 16.5281 15.9733 16.3842C16.0567 16.2206 16.0567 16.0065 16.0567 15.5783V12.6728C16.0567 12.2445 16.0567 12.0304 15.9733 11.8669C15.9 11.723 15.7831 11.6061 15.6392 11.5327C15.4756 11.4494 15.2616 11.4494 14.8333 11.4494Z" stroke="white" stroke-width="2" stroke-linecap="round" stroke-linejoin="round"/>
<path id="Vector_4" d="M6.42268 11.4494H3.51719C3.08897 11.4494 2.87486 11.4494 2.7113 11.5327C2.56744 11.6061 2.45047 11.723 2.37716 11.8669C2.29382 12.0304 2.29382 12.2445 2.29382 12.6728V15.5783C2.29382 16.0065 2.29382 16.2206 2.37716 16.3842C2.45047 16.5281 2.56744 16.645 2.7113 16.7183C2.87486 16.8016 3.08897 16.8016 3.51719 16.8016H6.42268C6.8509 16.8016 7.06501 16.8016 7.22857 16.7183C7.37244 16.645 7.4894 16.5281 7.56271 16.3842C7.64605 16.2206 7.64605 16.0065 7.64605 15.5783V12.6728C7.64605 12.2445 7.64605 12.0304 7.56271 11.8669C7.4894 11.723 7.37244 11.6061 7.22857 11.5327C7.06501 11.4494 6.8509 11.4494 6.42268 11.4494Z" stroke="white" stroke-width="2" stroke-linecap="round" stroke-linejoin="round"/>
</g>
</svg>
