<svg width="15" height="18" viewBox="0 0 15 18" fill="none" xmlns="http://www.w3.org/2000/svg">
<path id="Vector" d="M6.01958 5.66096C6.14593 5.2526 6.39533 4.90827 6.72354 4.68894C7.05182 4.4696 7.43776 4.38942 7.81301 4.46261C8.18826 4.53579 8.52866 4.75761 8.77383 5.08877C9.01907 5.41994 9.15324 5.83908 9.15266 6.27195C9.15266 7.49398 7.54044 8.10495 7.54044 8.10495M7.56124 10.5508H7.56841M3.86833 13.8119V15.7159C3.86833 16.1504 3.86833 16.3676 3.94666 16.4791C4.01478 16.5761 4.11807 16.6326 4.22726 16.6325C4.35282 16.6323 4.502 16.4966 4.80037 16.2252L6.51093 14.6694C6.86036 14.3516 7.03512 14.1927 7.22966 14.0797C7.40226 13.9794 7.58598 13.9061 7.77586 13.8618C7.98991 13.8119 8.21364 13.8119 8.6611 13.8119H10.4655C11.6703 13.8119 12.2727 13.8119 12.7329 13.5453C13.1377 13.3108 13.4668 12.9367 13.673 12.4764C13.9075 11.9532 13.9075 11.2684 13.9075 9.89855V5.49607C13.9075 4.12629 13.9075 3.44139 13.673 2.91821C13.4668 2.45799 13.1377 2.08383 12.7329 1.84934C12.2727 1.58276 11.6703 1.58276 10.4655 1.58276H4.442C3.23719 1.58276 2.63478 1.58276 2.1746 1.84934C1.76982 2.08383 1.44072 2.45799 1.23447 2.91821C1 3.44139 1 4.12629 1 5.49607V10.5508C1 11.309 1 11.6881 1.0733 11.9991C1.27222 12.8431 1.85209 13.5024 2.59446 13.7285C2.86803 13.8119 3.20147 13.8119 3.86833 13.8119Z" stroke="white" stroke-width="2" stroke-linecap="round" stroke-linejoin="round"/>
</svg>
