<svg width="19" height="20" viewBox="0 0 19 20" fill="none" xmlns="http://www.w3.org/2000/svg">
<g id="Frame" clip-path="url(#clip0_1_63)">
<path id="Vector" d="M15.4324 11.0427V6.6845C15.4324 5.39985 15.4324 4.75752 15.1824 4.26685C14.9625 3.83524 14.6116 3.48433 14.18 3.26441C13.6893 3.0144 13.047 3.0144 11.7624 3.0144H6.86889C5.58423 3.0144 4.9419 3.0144 4.45124 3.26441C4.01962 3.48433 3.66872 3.83524 3.4488 4.26685C3.19879 4.75752 3.19879 5.39985 3.19879 6.6845V14.6364C3.19879 15.9211 3.19879 16.5633 3.4488 17.0541C3.66872 17.4857 4.01962 17.8366 4.45124 18.0565C4.9419 18.3065 5.58423 18.3065 6.86889 18.3065H9.31562M10.8448 9.89584H6.25721M7.78641 12.9543H6.25721M12.374 6.83742H6.25721M11.2271 16.0127L12.7563 17.5419L16.1971 14.1012" stroke="white" stroke-width="2" stroke-linecap="round" stroke-linejoin="round"/>
</g>
<defs>
<clipPath id="clip0_1_63">
<rect width="18.3505" height="18.3505" fill="white" transform="translate(0 0.881897)"/>
</clipPath>
</defs>
</svg>
