<svg width="36" height="36" viewBox="0 0 36 36" fill="none" xmlns="http://www.w3.org/2000/svg">
<g id="Frame">
<path id="Vector" d="M6 11.9949C5.75399 11.9885 5.57535 11.9743 5.41473 11.9424C4.22466 11.7056 3.29436 10.7753 3.05764 9.58527C3 9.29547 3 8.94699 3 8.25C3 7.55301 3 7.20453 3.05764 6.91473C3.29436 5.72466 4.22466 4.79436 5.41473 4.55764C5.70453 4.5 6.05301 4.5 6.75 4.5H29.25C29.9471 4.5 30.2955 4.5 30.5853 4.55764C31.7754 4.79436 32.7057 5.72466 32.9424 6.91473C33 7.20453 33 7.55301 33 8.25C33 8.94699 33 9.29547 32.9424 9.58527C32.7057 10.7753 31.7754 11.7056 30.5853 11.9424C30.4247 11.9743 30.246 11.9885 30 11.9949M15 19.5H21M6 12H30V24.3C30 26.8203 30 28.0803 29.5095 29.043C29.0781 29.8897 28.3898 30.5781 27.543 31.0095C26.5803 31.5 25.3203 31.5 22.8 31.5H13.2C10.6798 31.5 9.41964 31.5 8.45705 31.0095C7.61031 30.5781 6.9219 29.8897 6.49047 29.043C6 28.0803 6 26.8203 6 24.3V12Z" stroke="black" stroke-width="2" stroke-linecap="round" stroke-linejoin="round"/>
</g>
</svg>
